<?xml version="1.0" encoding="utf-8" standalone="no"?>
<!DOCTYPE svg PUBLIC "-//W3C//DTD SVG 1.1//EN"
  "http://www.w3.org/Graphics/SVG/1.1/DTD/svg11.dtd">
<svg xmlns:xlink="http://www.w3.org/1999/xlink" width="576pt" height="432pt" viewBox="0 0 576 432" xmlns="http://www.w3.org/2000/svg" version="1.1">
 <metadata>
  <rdf:RDF xmlns:dc="http://purl.org/dc/elements/1.1/" xmlns:cc="http://creativecommons.org/ns#" xmlns:rdf="http://www.w3.org/1999/02/22-rdf-syntax-ns#">
   <cc:Work>
    <dc:type rdf:resource="http://purl.org/dc/dcmitype/StillImage"/>
    <dc:date>2024-07-02T17:17:10.531156</dc:date>
    <dc:format>image/svg+xml</dc:format>
    <dc:creator>
     <cc:Agent>
      <dc:title>Matplotlib v3.9.0, https://matplotlib.org/</dc:title>
     </cc:Agent>
    </dc:creator>
   </cc:Work>
  </rdf:RDF>
 </metadata>
 <defs>
  <style type="text/css">*{stroke-linejoin: round; stroke-linecap: butt}</style>
 </defs>
 <g id="figure_1">
  <g id="patch_1">
   <path d="M 0 432 
L 576 432 
L 576 0 
L 0 0 
z
" style="fill: #ffffff"/>
  </g>
  <g id="axes_1">
   <g id="patch_2">
    <path d="M 72 384.48 
L 518.4 384.48 
L 518.4 51.84 
L 72 51.84 
z
" style="fill: #ffffff"/>
   </g>
   <g id="matplotlib.axis_1">
    <g id="xtick_1">
     <g id="line2d_1">
      <defs>
       <path id="m56ca83f339" d="M 0 0 
L 0 3.5 
" style="stroke: #000000; stroke-width: 0.8"/>
      </defs>
      <g>
       <use xlink:href="#m56ca83f339" x="92.290909" y="384.48" style="stroke: #000000; stroke-width: 0.8"/>
      </g>
     </g>
     <g id="text_1">
      <!-- −10.0 -->
      <g transform="translate(76.968253 399.078438) scale(0.1 -0.1)">
       <defs>
        <path id="DejaVuSans-2212" d="M 678 2272 
L 4684 2272 
L 4684 1741 
L 678 1741 
L 678 2272 
z
" transform="scale(0.015625)"/>
        <path id="DejaVuSans-31" d="M 794 531 
L 1825 531 
L 1825 4091 
L 703 3866 
L 703 4441 
L 1819 4666 
L 2450 4666 
L 2450 531 
L 3481 531 
L 3481 0 
L 794 0 
L 794 531 
z
" transform="scale(0.015625)"/>
        <path id="DejaVuSans-30" d="M 2034 4250 
Q 1547 4250 1301 3770 
Q 1056 3291 1056 2328 
Q 1056 1369 1301 889 
Q 1547 409 2034 409 
Q 2525 409 2770 889 
Q 3016 1369 3016 2328 
Q 3016 3291 2770 3770 
Q 2525 4250 2034 4250 
z
M 2034 4750 
Q 2819 4750 3233 4129 
Q 3647 3509 3647 2328 
Q 3647 1150 3233 529 
Q 2819 -91 2034 -91 
Q 1250 -91 836 529 
Q 422 1150 422 2328 
Q 422 3509 836 4129 
Q 1250 4750 2034 4750 
z
" transform="scale(0.015625)"/>
        <path id="DejaVuSans-2e" d="M 684 794 
L 1344 794 
L 1344 0 
L 684 0 
L 684 794 
z
" transform="scale(0.015625)"/>
       </defs>
       <use xlink:href="#DejaVuSans-2212"/>
       <use xlink:href="#DejaVuSans-31" x="83.789062"/>
       <use xlink:href="#DejaVuSans-30" x="147.412109"/>
       <use xlink:href="#DejaVuSans-2e" x="211.035156"/>
       <use xlink:href="#DejaVuSans-30" x="242.822266"/>
      </g>
     </g>
    </g>
    <g id="xtick_2">
     <g id="line2d_2">
      <g>
       <use xlink:href="#m56ca83f339" x="143.018182" y="384.48" style="stroke: #000000; stroke-width: 0.8"/>
      </g>
     </g>
     <g id="text_2">
      <!-- −7.5 -->
      <g transform="translate(130.876776 399.078438) scale(0.1 -0.1)">
       <defs>
        <path id="DejaVuSans-37" d="M 525 4666 
L 3525 4666 
L 3525 4397 
L 1831 0 
L 1172 0 
L 2766 4134 
L 525 4134 
L 525 4666 
z
" transform="scale(0.015625)"/>
        <path id="DejaVuSans-35" d="M 691 4666 
L 3169 4666 
L 3169 4134 
L 1269 4134 
L 1269 2991 
Q 1406 3038 1543 3061 
Q 1681 3084 1819 3084 
Q 2600 3084 3056 2656 
Q 3513 2228 3513 1497 
Q 3513 744 3044 326 
Q 2575 -91 1722 -91 
Q 1428 -91 1123 -41 
Q 819 9 494 109 
L 494 744 
Q 775 591 1075 516 
Q 1375 441 1709 441 
Q 2250 441 2565 725 
Q 2881 1009 2881 1497 
Q 2881 1984 2565 2268 
Q 2250 2553 1709 2553 
Q 1456 2553 1204 2497 
Q 953 2441 691 2322 
L 691 4666 
z
" transform="scale(0.015625)"/>
       </defs>
       <use xlink:href="#DejaVuSans-2212"/>
       <use xlink:href="#DejaVuSans-37" x="83.789062"/>
       <use xlink:href="#DejaVuSans-2e" x="147.412109"/>
       <use xlink:href="#DejaVuSans-35" x="179.199219"/>
      </g>
     </g>
    </g>
    <g id="xtick_3">
     <g id="line2d_3">
      <g>
       <use xlink:href="#m56ca83f339" x="193.745455" y="384.48" style="stroke: #000000; stroke-width: 0.8"/>
      </g>
     </g>
     <g id="text_3">
      <!-- −5.0 -->
      <g transform="translate(181.604048 399.078438) scale(0.1 -0.1)">
       <use xlink:href="#DejaVuSans-2212"/>
       <use xlink:href="#DejaVuSans-35" x="83.789062"/>
       <use xlink:href="#DejaVuSans-2e" x="147.412109"/>
       <use xlink:href="#DejaVuSans-30" x="179.199219"/>
      </g>
     </g>
    </g>
    <g id="xtick_4">
     <g id="line2d_4">
      <g>
       <use xlink:href="#m56ca83f339" x="244.472727" y="384.48" style="stroke: #000000; stroke-width: 0.8"/>
      </g>
     </g>
     <g id="text_4">
      <!-- −2.5 -->
      <g transform="translate(232.331321 399.078438) scale(0.1 -0.1)">
       <defs>
        <path id="DejaVuSans-32" d="M 1228 531 
L 3431 531 
L 3431 0 
L 469 0 
L 469 531 
Q 828 903 1448 1529 
Q 2069 2156 2228 2338 
Q 2531 2678 2651 2914 
Q 2772 3150 2772 3378 
Q 2772 3750 2511 3984 
Q 2250 4219 1831 4219 
Q 1534 4219 1204 4116 
Q 875 4013 500 3803 
L 500 4441 
Q 881 4594 1212 4672 
Q 1544 4750 1819 4750 
Q 2544 4750 2975 4387 
Q 3406 4025 3406 3419 
Q 3406 3131 3298 2873 
Q 3191 2616 2906 2266 
Q 2828 2175 2409 1742 
Q 1991 1309 1228 531 
z
" transform="scale(0.015625)"/>
       </defs>
       <use xlink:href="#DejaVuSans-2212"/>
       <use xlink:href="#DejaVuSans-32" x="83.789062"/>
       <use xlink:href="#DejaVuSans-2e" x="147.412109"/>
       <use xlink:href="#DejaVuSans-35" x="179.199219"/>
      </g>
     </g>
    </g>
    <g id="xtick_5">
     <g id="line2d_5">
      <g>
       <use xlink:href="#m56ca83f339" x="295.2" y="384.48" style="stroke: #000000; stroke-width: 0.8"/>
      </g>
     </g>
     <g id="text_5">
      <!-- 0.0 -->
      <g transform="translate(287.248437 399.078438) scale(0.1 -0.1)">
       <use xlink:href="#DejaVuSans-30"/>
       <use xlink:href="#DejaVuSans-2e" x="63.623047"/>
       <use xlink:href="#DejaVuSans-30" x="95.410156"/>
      </g>
     </g>
    </g>
    <g id="xtick_6">
     <g id="line2d_6">
      <g>
       <use xlink:href="#m56ca83f339" x="345.927273" y="384.48" style="stroke: #000000; stroke-width: 0.8"/>
      </g>
     </g>
     <g id="text_6">
      <!-- 2.5 -->
      <g transform="translate(337.97571 399.078438) scale(0.1 -0.1)">
       <use xlink:href="#DejaVuSans-32"/>
       <use xlink:href="#DejaVuSans-2e" x="63.623047"/>
       <use xlink:href="#DejaVuSans-35" x="95.410156"/>
      </g>
     </g>
    </g>
    <g id="xtick_7">
     <g id="line2d_7">
      <g>
       <use xlink:href="#m56ca83f339" x="396.654545" y="384.48" style="stroke: #000000; stroke-width: 0.8"/>
      </g>
     </g>
     <g id="text_7">
      <!-- 5.0 -->
      <g transform="translate(388.702983 399.078438) scale(0.1 -0.1)">
       <use xlink:href="#DejaVuSans-35"/>
       <use xlink:href="#DejaVuSans-2e" x="63.623047"/>
       <use xlink:href="#DejaVuSans-30" x="95.410156"/>
      </g>
     </g>
    </g>
    <g id="xtick_8">
     <g id="line2d_8">
      <g>
       <use xlink:href="#m56ca83f339" x="447.381818" y="384.48" style="stroke: #000000; stroke-width: 0.8"/>
      </g>
     </g>
     <g id="text_8">
      <!-- 7.5 -->
      <g transform="translate(439.430256 399.078438) scale(0.1 -0.1)">
       <use xlink:href="#DejaVuSans-37"/>
       <use xlink:href="#DejaVuSans-2e" x="63.623047"/>
       <use xlink:href="#DejaVuSans-35" x="95.410156"/>
      </g>
     </g>
    </g>
    <g id="xtick_9">
     <g id="line2d_9">
      <g>
       <use xlink:href="#m56ca83f339" x="498.109091" y="384.48" style="stroke: #000000; stroke-width: 0.8"/>
      </g>
     </g>
     <g id="text_9">
      <!-- 10.0 -->
      <g transform="translate(486.976278 399.078438) scale(0.1 -0.1)">
       <use xlink:href="#DejaVuSans-31"/>
       <use xlink:href="#DejaVuSans-30" x="63.623047"/>
       <use xlink:href="#DejaVuSans-2e" x="127.246094"/>
       <use xlink:href="#DejaVuSans-30" x="159.033203"/>
      </g>
     </g>
    </g>
    <g id="text_10">
     <!-- $\lambda_t$ [-] -->
     <g transform="translate(278.68 415.795938) scale(0.14 -0.14)">
      <defs>
       <path id="DejaVuSans-Oblique-3bb" d="M 2350 4316 
L 3125 0 
L 2516 0 
L 2038 2588 
L 328 0 
L -281 0 
L 1903 3356 
L 1794 3975 
Q 1725 4369 1391 4369 
L 1091 4369 
L 1184 4863 
L 1550 4856 
Q 2253 4847 2350 4316 
z
" transform="scale(0.015625)"/>
       <path id="DejaVuSans-Oblique-74" d="M 2706 3500 
L 2619 3053 
L 1472 3053 
L 1100 1153 
Q 1081 1047 1072 975 
Q 1063 903 1063 863 
Q 1063 663 1183 572 
Q 1303 481 1569 481 
L 2150 481 
L 2053 0 
L 1503 0 
Q 991 0 739 200 
Q 488 400 488 806 
Q 488 878 497 964 
Q 506 1050 525 1153 
L 897 3053 
L 409 3053 
L 500 3500 
L 978 3500 
L 1172 4494 
L 1747 4494 
L 1556 3500 
L 2706 3500 
z
" transform="scale(0.015625)"/>
       <path id="DejaVuSans-20" transform="scale(0.015625)"/>
       <path id="DejaVuSans-5b" d="M 550 4863 
L 1875 4863 
L 1875 4416 
L 1125 4416 
L 1125 -397 
L 1875 -397 
L 1875 -844 
L 550 -844 
L 550 4863 
z
" transform="scale(0.015625)"/>
       <path id="DejaVuSans-2d" d="M 313 2009 
L 1997 2009 
L 1997 1497 
L 313 1497 
L 313 2009 
z
" transform="scale(0.015625)"/>
       <path id="DejaVuSans-5d" d="M 1947 4863 
L 1947 -844 
L 622 -844 
L 622 -397 
L 1369 -397 
L 1369 4416 
L 622 4416 
L 622 4863 
L 1947 4863 
z
" transform="scale(0.015625)"/>
      </defs>
      <use xlink:href="#DejaVuSans-Oblique-3bb" transform="translate(0 0.015625)"/>
      <use xlink:href="#DejaVuSans-Oblique-74" transform="translate(59.179688 -16.390625) scale(0.7)"/>
      <use xlink:href="#DejaVuSans-20" transform="translate(89.360352 0.015625)"/>
      <use xlink:href="#DejaVuSans-5b" transform="translate(121.147461 0.015625)"/>
      <use xlink:href="#DejaVuSans-2d" transform="translate(160.161133 0.015625)"/>
      <use xlink:href="#DejaVuSans-5d" transform="translate(196.245117 0.015625)"/>
     </g>
    </g>
   </g>
   <g id="matplotlib.axis_2">
    <g id="ytick_1">
     <g id="line2d_10">
      <defs>
       <path id="m5b9f83a1e9" d="M 0 0 
L -3.5 0 
" style="stroke: #000000; stroke-width: 0.8"/>
      </defs>
      <g>
       <use xlink:href="#m5b9f83a1e9" x="72" y="328.874925" style="stroke: #000000; stroke-width: 0.8"/>
      </g>
     </g>
     <g id="text_11">
      <!-- 2 -->
      <g transform="translate(58.6375 332.674144) scale(0.1 -0.1)">
       <use xlink:href="#DejaVuSans-32"/>
      </g>
     </g>
    </g>
    <g id="ytick_2">
     <g id="line2d_11">
      <g>
       <use xlink:href="#m5b9f83a1e9" x="72" y="263.396186" style="stroke: #000000; stroke-width: 0.8"/>
      </g>
     </g>
     <g id="text_12">
      <!-- 4 -->
      <g transform="translate(58.6375 267.195405) scale(0.1 -0.1)">
       <defs>
        <path id="DejaVuSans-34" d="M 2419 4116 
L 825 1625 
L 2419 1625 
L 2419 4116 
z
M 2253 4666 
L 3047 4666 
L 3047 1625 
L 3713 1625 
L 3713 1100 
L 3047 1100 
L 3047 0 
L 2419 0 
L 2419 1100 
L 313 1100 
L 313 1709 
L 2253 4666 
z
" transform="scale(0.015625)"/>
       </defs>
       <use xlink:href="#DejaVuSans-34"/>
      </g>
     </g>
    </g>
    <g id="ytick_3">
     <g id="line2d_12">
      <g>
       <use xlink:href="#m5b9f83a1e9" x="72" y="197.917447" style="stroke: #000000; stroke-width: 0.8"/>
      </g>
     </g>
     <g id="text_13">
      <!-- 6 -->
      <g transform="translate(58.6375 201.716666) scale(0.1 -0.1)">
       <defs>
        <path id="DejaVuSans-36" d="M 2113 2584 
Q 1688 2584 1439 2293 
Q 1191 2003 1191 1497 
Q 1191 994 1439 701 
Q 1688 409 2113 409 
Q 2538 409 2786 701 
Q 3034 994 3034 1497 
Q 3034 2003 2786 2293 
Q 2538 2584 2113 2584 
z
M 3366 4563 
L 3366 3988 
Q 3128 4100 2886 4159 
Q 2644 4219 2406 4219 
Q 1781 4219 1451 3797 
Q 1122 3375 1075 2522 
Q 1259 2794 1537 2939 
Q 1816 3084 2150 3084 
Q 2853 3084 3261 2657 
Q 3669 2231 3669 1497 
Q 3669 778 3244 343 
Q 2819 -91 2113 -91 
Q 1303 -91 875 529 
Q 447 1150 447 2328 
Q 447 3434 972 4092 
Q 1497 4750 2381 4750 
Q 2619 4750 2861 4703 
Q 3103 4656 3366 4563 
z
" transform="scale(0.015625)"/>
       </defs>
       <use xlink:href="#DejaVuSans-36"/>
      </g>
     </g>
    </g>
    <g id="ytick_4">
     <g id="line2d_13">
      <g>
       <use xlink:href="#m5b9f83a1e9" x="72" y="132.438708" style="stroke: #000000; stroke-width: 0.8"/>
      </g>
     </g>
     <g id="text_14">
      <!-- 8 -->
      <g transform="translate(58.6375 136.237927) scale(0.1 -0.1)">
       <defs>
        <path id="DejaVuSans-38" d="M 2034 2216 
Q 1584 2216 1326 1975 
Q 1069 1734 1069 1313 
Q 1069 891 1326 650 
Q 1584 409 2034 409 
Q 2484 409 2743 651 
Q 3003 894 3003 1313 
Q 3003 1734 2745 1975 
Q 2488 2216 2034 2216 
z
M 1403 2484 
Q 997 2584 770 2862 
Q 544 3141 544 3541 
Q 544 4100 942 4425 
Q 1341 4750 2034 4750 
Q 2731 4750 3128 4425 
Q 3525 4100 3525 3541 
Q 3525 3141 3298 2862 
Q 3072 2584 2669 2484 
Q 3125 2378 3379 2068 
Q 3634 1759 3634 1313 
Q 3634 634 3220 271 
Q 2806 -91 2034 -91 
Q 1263 -91 848 271 
Q 434 634 434 1313 
Q 434 1759 690 2068 
Q 947 2378 1403 2484 
z
M 1172 3481 
Q 1172 3119 1398 2916 
Q 1625 2713 2034 2713 
Q 2441 2713 2670 2916 
Q 2900 3119 2900 3481 
Q 2900 3844 2670 4047 
Q 2441 4250 2034 4250 
Q 1625 4250 1398 4047 
Q 1172 3844 1172 3481 
z
" transform="scale(0.015625)"/>
       </defs>
       <use xlink:href="#DejaVuSans-38"/>
      </g>
     </g>
    </g>
    <g id="ytick_5">
     <g id="line2d_14">
      <g>
       <use xlink:href="#m5b9f83a1e9" x="72" y="66.959969" style="stroke: #000000; stroke-width: 0.8"/>
      </g>
     </g>
     <g id="text_15">
      <!-- 10 -->
      <g transform="translate(52.275 70.759188) scale(0.1 -0.1)">
       <use xlink:href="#DejaVuSans-31"/>
       <use xlink:href="#DejaVuSans-30" x="63.623047"/>
      </g>
     </g>
    </g>
    <g id="text_16">
     <!-- Learning rate [-] -->
     <g transform="translate(45.363437 275.206719) rotate(-90) scale(0.14 -0.14)">
      <defs>
       <path id="DejaVuSans-4c" d="M 628 4666 
L 1259 4666 
L 1259 531 
L 3531 531 
L 3531 0 
L 628 0 
L 628 4666 
z
" transform="scale(0.015625)"/>
       <path id="DejaVuSans-65" d="M 3597 1894 
L 3597 1613 
L 953 1613 
Q 991 1019 1311 708 
Q 1631 397 2203 397 
Q 2534 397 2845 478 
Q 3156 559 3463 722 
L 3463 178 
Q 3153 47 2828 -22 
Q 2503 -91 2169 -91 
Q 1331 -91 842 396 
Q 353 884 353 1716 
Q 353 2575 817 3079 
Q 1281 3584 2069 3584 
Q 2775 3584 3186 3129 
Q 3597 2675 3597 1894 
z
M 3022 2063 
Q 3016 2534 2758 2815 
Q 2500 3097 2075 3097 
Q 1594 3097 1305 2825 
Q 1016 2553 972 2059 
L 3022 2063 
z
" transform="scale(0.015625)"/>
       <path id="DejaVuSans-61" d="M 2194 1759 
Q 1497 1759 1228 1600 
Q 959 1441 959 1056 
Q 959 750 1161 570 
Q 1363 391 1709 391 
Q 2188 391 2477 730 
Q 2766 1069 2766 1631 
L 2766 1759 
L 2194 1759 
z
M 3341 1997 
L 3341 0 
L 2766 0 
L 2766 531 
Q 2569 213 2275 61 
Q 1981 -91 1556 -91 
Q 1019 -91 701 211 
Q 384 513 384 1019 
Q 384 1609 779 1909 
Q 1175 2209 1959 2209 
L 2766 2209 
L 2766 2266 
Q 2766 2663 2505 2880 
Q 2244 3097 1772 3097 
Q 1472 3097 1187 3025 
Q 903 2953 641 2809 
L 641 3341 
Q 956 3463 1253 3523 
Q 1550 3584 1831 3584 
Q 2591 3584 2966 3190 
Q 3341 2797 3341 1997 
z
" transform="scale(0.015625)"/>
       <path id="DejaVuSans-72" d="M 2631 2963 
Q 2534 3019 2420 3045 
Q 2306 3072 2169 3072 
Q 1681 3072 1420 2755 
Q 1159 2438 1159 1844 
L 1159 0 
L 581 0 
L 581 3500 
L 1159 3500 
L 1159 2956 
Q 1341 3275 1631 3429 
Q 1922 3584 2338 3584 
Q 2397 3584 2469 3576 
Q 2541 3569 2628 3553 
L 2631 2963 
z
" transform="scale(0.015625)"/>
       <path id="DejaVuSans-6e" d="M 3513 2113 
L 3513 0 
L 2938 0 
L 2938 2094 
Q 2938 2591 2744 2837 
Q 2550 3084 2163 3084 
Q 1697 3084 1428 2787 
Q 1159 2491 1159 1978 
L 1159 0 
L 581 0 
L 581 3500 
L 1159 3500 
L 1159 2956 
Q 1366 3272 1645 3428 
Q 1925 3584 2291 3584 
Q 2894 3584 3203 3211 
Q 3513 2838 3513 2113 
z
" transform="scale(0.015625)"/>
       <path id="DejaVuSans-69" d="M 603 3500 
L 1178 3500 
L 1178 0 
L 603 0 
L 603 3500 
z
M 603 4863 
L 1178 4863 
L 1178 4134 
L 603 4134 
L 603 4863 
z
" transform="scale(0.015625)"/>
       <path id="DejaVuSans-67" d="M 2906 1791 
Q 2906 2416 2648 2759 
Q 2391 3103 1925 3103 
Q 1463 3103 1205 2759 
Q 947 2416 947 1791 
Q 947 1169 1205 825 
Q 1463 481 1925 481 
Q 2391 481 2648 825 
Q 2906 1169 2906 1791 
z
M 3481 434 
Q 3481 -459 3084 -895 
Q 2688 -1331 1869 -1331 
Q 1566 -1331 1297 -1286 
Q 1028 -1241 775 -1147 
L 775 -588 
Q 1028 -725 1275 -790 
Q 1522 -856 1778 -856 
Q 2344 -856 2625 -561 
Q 2906 -266 2906 331 
L 2906 616 
Q 2728 306 2450 153 
Q 2172 0 1784 0 
Q 1141 0 747 490 
Q 353 981 353 1791 
Q 353 2603 747 3093 
Q 1141 3584 1784 3584 
Q 2172 3584 2450 3431 
Q 2728 3278 2906 2969 
L 2906 3500 
L 3481 3500 
L 3481 434 
z
" transform="scale(0.015625)"/>
       <path id="DejaVuSans-74" d="M 1172 4494 
L 1172 3500 
L 2356 3500 
L 2356 3053 
L 1172 3053 
L 1172 1153 
Q 1172 725 1289 603 
Q 1406 481 1766 481 
L 2356 481 
L 2356 0 
L 1766 0 
Q 1100 0 847 248 
Q 594 497 594 1153 
L 594 3053 
L 172 3053 
L 172 3500 
L 594 3500 
L 594 4494 
L 1172 4494 
z
" transform="scale(0.015625)"/>
      </defs>
      <use xlink:href="#DejaVuSans-4c"/>
      <use xlink:href="#DejaVuSans-65" x="53.962891"/>
      <use xlink:href="#DejaVuSans-61" x="115.486328"/>
      <use xlink:href="#DejaVuSans-72" x="176.765625"/>
      <use xlink:href="#DejaVuSans-6e" x="216.128906"/>
      <use xlink:href="#DejaVuSans-69" x="279.507812"/>
      <use xlink:href="#DejaVuSans-6e" x="307.291016"/>
      <use xlink:href="#DejaVuSans-67" x="370.669922"/>
      <use xlink:href="#DejaVuSans-20" x="434.146484"/>
      <use xlink:href="#DejaVuSans-72" x="465.933594"/>
      <use xlink:href="#DejaVuSans-61" x="507.046875"/>
      <use xlink:href="#DejaVuSans-74" x="568.326172"/>
      <use xlink:href="#DejaVuSans-65" x="607.535156"/>
      <use xlink:href="#DejaVuSans-20" x="669.058594"/>
      <use xlink:href="#DejaVuSans-5b" x="700.845703"/>
      <use xlink:href="#DejaVuSans-2d" x="739.859375"/>
      <use xlink:href="#DejaVuSans-5d" x="775.943359"/>
     </g>
    </g>
   </g>
   <g id="line2d_15">
    <path d="M 92.290909 66.96 
L 176.379359 67.067375 
L 188.15987 67.302763 
L 195.471905 67.663916 
L 200.752819 68.142841 
L 204.815061 68.722022 
L 208.064864 69.382132 
L 210.908433 70.157672 
L 213.752002 71.178124 
L 216.189347 72.303921 
L 218.220473 73.463719 
L 220.251593 74.868678 
L 222.282714 76.567598 
L 224.313835 78.617493 
L 225.938732 80.554112 
L 227.563633 82.795496 
L 229.18853 85.383576 
L 230.813426 88.364064 
L 232.438323 91.785884 
L 234.06322 95.700648 
L 235.688121 100.161247 
L 237.313018 105.220573 
L 238.937915 110.929143 
L 240.562811 117.332512 
L 242.593932 126.369765 
L 244.625058 136.59626 
L 246.656179 148.01735 
L 249.093524 163.230156 
L 251.530868 179.898861 
L 254.780667 203.812245 
L 263.311377 267.83507 
L 265.748724 284.278971 
L 268.186071 299.209056 
L 270.217192 310.357619 
L 272.248315 320.282237 
L 274.279436 328.989614 
L 275.904334 335.10801 
L 277.529232 340.510446 
L 279.154129 345.238939 
L 280.779026 349.339159 
L 282.403924 352.857625 
L 284.028821 355.839673 
L 285.653719 358.327669 
L 287.278617 360.359849 
L 288.903515 361.969426 
L 290.528412 363.183985 
L 291.747085 363.848919 
L 292.965758 364.310759 
L 294.184431 364.574333 
L 295.40312 364.642457 
L 296.621793 364.515896 
L 297.840466 364.193426 
L 299.059139 363.671765 
L 300.277812 362.945668 
L 301.496485 362.00791 
L 302.715159 360.849351 
L 304.340056 358.941874 
L 305.964954 356.591242 
L 307.589852 353.761635 
L 309.214749 350.413126 
L 310.839647 346.502865 
L 312.464544 341.986725 
L 314.089442 336.82134 
L 315.71434 330.96676 
L 317.339236 324.389567 
L 319.37036 315.117503 
L 321.40148 304.666549 
L 323.432604 293.067348 
L 325.869949 277.756293 
L 328.71352 258.314396 
L 333.181988 225.80481 
L 337.650454 193.576634 
L 340.494028 174.561309 
L 342.931373 159.709344 
L 344.962494 148.51963 
L 346.99362 138.47137 
L 349.02474 129.568843 
L 351.055861 121.774971 
L 353.086982 115.022595 
L 354.711879 110.312963 
L 356.33678 106.165527 
L 357.961677 102.529426 
L 359.586574 99.353984 
L 361.21147 96.590338 
L 362.836367 94.192186 
L 364.461268 92.116532 
L 366.492389 89.915894 
L 368.52351 88.089179 
L 370.554631 86.576627 
L 372.585756 85.32672 
L 375.023101 84.112282 
L 377.460446 83.150092 
L 380.304016 82.278635 
L 383.553809 81.536284 
L 387.209836 80.938682 
L 391.678302 80.446175 
L 397.36544 80.063135 
L 405.083709 79.791092 
L 416.86421 79.626954 
L 441.237679 79.558826 
L 498.109091 79.552051 
L 498.109091 79.552051 
" clip-path="url(#p206ac3e858)" style="fill: none; stroke: #440154; stroke-width: 1.5; stroke-linecap: square"/>
   </g>
   <g id="line2d_16">
    <path d="M 92.290909 66.96 
L 176.379359 67.068374 
L 188.15987 67.305854 
L 195.471905 67.670223 
L 200.752819 68.153425 
L 204.815061 68.737758 
L 208.064864 69.403738 
L 210.908433 70.186116 
L 213.345778 71.050704 
L 215.783123 72.143124 
L 217.814244 73.268733 
L 219.845369 74.632665 
L 221.87649 76.282473 
L 223.907611 78.273856 
L 225.532507 80.15596 
L 227.157409 82.335117 
L 228.782306 84.852634 
L 230.407202 87.753441 
L 232.032099 91.085933 
L 233.656996 94.901284 
L 235.281892 99.252323 
L 236.906794 104.192066 
L 238.53169 109.771749 
L 240.156587 116.038206 
L 242.187708 124.895992 
L 244.218834 134.938897 
L 246.249954 146.17952 
L 248.281075 158.580332 
L 250.71842 174.852742 
L 253.561994 195.381149 
L 258.842908 235.625612 
L 262.498928 262.800707 
L 265.3425 282.331776 
L 267.779845 297.487678 
L 269.810968 308.838174 
L 271.842089 318.968066 
L 273.873212 327.877212 
L 275.49811 334.151128 
L 277.123007 339.702082 
L 278.747904 344.571226 
L 280.372802 348.803998 
L 281.9977 352.447284 
L 283.622597 355.547171 
L 285.247495 358.147214 
L 286.872393 360.287112 
L 288.49729 362.001825 
L 290.122188 363.320976 
L 291.340861 364.065337 
L 292.559534 364.608651 
L 293.778207 364.956913 
L 294.99688 365.114246 
L 296.215569 365.082867 
L 297.434242 364.863159 
L 298.652915 364.453685 
L 299.871588 363.851249 
L 301.090261 363.050994 
L 302.715159 361.664849 
L 304.340056 359.896024 
L 305.964954 357.721258 
L 307.589852 355.114237 
L 309.214749 352.046818 
L 310.839647 348.490557 
L 312.464544 344.418598 
L 314.089442 339.807954 
L 316.120564 333.262768 
L 318.151685 325.839502 
L 320.182808 317.557892 
L 322.620155 306.571399 
L 325.463724 292.546148 
L 329.525968 271.113102 
L 334.806885 243.275563 
L 337.650454 229.439007 
L 340.087804 218.64045 
L 342.118925 210.509857 
L 344.150046 203.212598 
L 346.181166 196.75053 
L 348.212292 191.095632 
L 350.243413 186.198289 
L 352.274534 181.995059 
L 353.89943 179.0849 
L 355.524332 176.53666 
L 357.555453 173.804549 
L 359.586574 171.512601 
L 361.617694 169.597978 
L 363.648815 168.004231 
L 365.679941 166.681435 
L 368.117286 165.391094 
L 370.554631 164.365241 
L 373.398205 163.4334 
L 376.647998 162.637565 
L 380.304016 161.995517 
L 384.772481 161.46548 
L 390.053405 161.075134 
L 397.36544 160.780642 
L 407.927278 160.599831 
L 428.64472 160.513844 
L 498.109091 160.501058 
L 498.109091 160.501058 
" clip-path="url(#p206ac3e858)" style="fill: none; stroke: #31688e; stroke-width: 1.5; stroke-linecap: square"/>
   </g>
   <g id="line2d_17">
    <path d="M 92.290909 66.960031 
L 175.566911 67.068936 
L 187.347412 67.307696 
L 194.253232 67.646025 
L 199.534146 68.112836 
L 203.596388 68.677436 
L 207.252415 69.416727 
L 210.095984 70.203258 
L 212.533329 71.072435 
L 214.970674 72.1706 
L 217.001795 73.302173 
L 219.032921 74.673348 
L 221.064042 76.331929 
L 223.095162 78.333897 
L 224.720059 80.226024 
L 226.344956 82.416796 
L 227.969857 84.947676 
L 229.594754 87.86397 
L 231.219651 91.21429 
L 232.844547 95.05006 
L 234.469444 99.424423 
L 236.094345 104.390767 
L 237.719242 110.000486 
L 239.344139 116.300789 
L 241.37526 125.206657 
L 243.40638 135.304343 
L 245.437506 146.606631 
L 247.468627 159.076054 
L 249.905972 175.439401 
L 252.749546 196.084316 
L 258.03046 236.565587 
L 262.092704 266.82486 
L 264.936276 286.227751 
L 267.373621 301.225121 
L 269.404744 312.426013 
L 271.435865 322.403319 
L 273.466988 331.167468 
L 275.091885 337.336834 
L 276.716782 342.797535 
L 278.34168 347.593872 
L 279.966578 351.774025 
L 281.591475 355.387405 
L 283.216373 358.482612 
L 284.841271 361.105896 
L 286.466168 363.300085 
L 288.091066 365.103935 
L 289.715963 366.551741 
L 291.340861 367.673307 
L 292.965758 368.493992 
L 294.590656 369.035042 
L 296.215569 369.314013 
L 297.840466 369.345282 
L 299.465364 369.140737 
L 301.090261 368.710511 
L 302.715159 368.063811 
L 304.340056 367.209798 
L 306.371179 365.866137 
L 308.4023 364.237807 
L 310.839647 361.950567 
L 313.683218 358.90808 
L 317.339236 354.612063 
L 324.245052 346.404963 
L 327.088623 343.362596 
L 329.932193 340.653516 
L 332.36954 338.626273 
L 334.806885 336.874805 
L 337.24423 335.387133 
L 339.68158 334.141585 
L 342.525149 332.95839 
L 345.368718 332.022462 
L 348.618516 331.199447 
L 352.274534 330.518968 
L 356.33678 329.98846 
L 361.617694 329.54256 
L 368.117286 329.228948 
L 377.460446 329.016477 
L 393.709423 328.903529 
L 444.081248 328.875128 
L 498.109091 328.874933 
L 498.109091 328.874933 
" clip-path="url(#p206ac3e858)" style="fill: none; stroke: #35b779; stroke-width: 1.5; stroke-linecap: square"/>
   </g>
   <g id="patch_3">
    <path d="M 72 384.48 
L 72 51.84 
" style="fill: none; stroke: #000000; stroke-width: 0.8; stroke-linejoin: miter; stroke-linecap: square"/>
   </g>
   <g id="patch_4">
    <path d="M 518.4 384.48 
L 518.4 51.84 
" style="fill: none; stroke: #000000; stroke-width: 0.8; stroke-linejoin: miter; stroke-linecap: square"/>
   </g>
   <g id="patch_5">
    <path d="M 72 384.48 
L 518.4 384.48 
" style="fill: none; stroke: #000000; stroke-width: 0.8; stroke-linejoin: miter; stroke-linecap: square"/>
   </g>
   <g id="patch_6">
    <path d="M 72 51.84 
L 518.4 51.84 
" style="fill: none; stroke: #000000; stroke-width: 0.8; stroke-linejoin: miter; stroke-linecap: square"/>
   </g>
   <g id="legend_1">
    <g id="line2d_18">
     <path d="M 82.8 316.2 
L 94.8 316.2 
L 106.8 316.2 
" style="fill: none; stroke: #440154; stroke-width: 1.5; stroke-linecap: square"/>
    </g>
    <g id="text_17">
     <!-- $\frac{\partial\mathcal{L}(\lambda, \mathcal{B}_{t+1})}{\partial \lambda} (\lambda_t)$ = 0.001 -->
     <g transform="translate(116.4 320.4) scale(0.12 -0.12)">
      <defs>
       <path id="DejaVuSans-2202" d="M 1366 -91 
Q 925 -91 638 175 
Q 297 491 297 1063 
Q 297 1656 597 2119 
Q 906 2594 1463 2594 
Q 1828 2594 2116 2366 
Q 2284 2231 2400 2006 
Q 2441 2259 2441 2547 
Q 2441 2969 2341 3213 
Q 2119 3753 1531 3753 
Q 1309 3753 966 3616 
L 966 4141 
Q 1328 4238 1653 4238 
Q 2491 4238 2847 3469 
Q 3013 3106 3013 2566 
Q 3013 2213 2934 1803 
Q 2738 778 2228 291 
Q 1828 -91 1366 -91 
z
M 831 969 
Q 831 656 969 488 
Q 1116 309 1341 309 
Q 1541 309 1700 450 
Q 1925 644 2091 959 
Q 2228 1219 2297 1497 
Q 2019 2169 1538 2169 
Q 1125 2169 944 1625 
Q 831 1288 831 969 
z
" transform="scale(0.015625)"/>
       <path id="STIXNonUnicode-Italic-e238" d="M 4070 915 
L 4179 800 
Q 3347 -45 2413 -45 
Q 2157 -45 1850 26 
Q 1395 122 1146 122 
Q 1005 122 672 61 
Q 339 0 192 0 
L 230 154 
Q 582 154 730 749 
L 1178 2566 
Q 1286 3008 1516 3353 
Q 1747 3699 2025 3894 
Q 2304 4090 2585 4189 
Q 2867 4288 3123 4288 
Q 3443 4288 3593 4083 
Q 3744 3878 3744 3584 
Q 3744 3347 3593 3200 
Q 3443 3053 3226 3053 
Q 3085 3053 2995 3149 
Q 2906 3245 2906 3379 
Q 2906 3482 2957 3552 
Q 3008 3622 3065 3644 
Q 3123 3667 3174 3705 
Q 3226 3744 3226 3789 
Q 3226 4032 2854 4032 
Q 2522 4032 2310 3785 
Q 2099 3539 1990 3132 
Q 1882 2726 1795 2284 
Q 1709 1843 1549 1363 
Q 1389 883 1158 589 
L 1158 563 
Q 1363 704 1888 704 
Q 2227 704 2460 544 
Q 2694 384 2963 384 
Q 3507 384 4070 915 
z
" transform="scale(0.015625)"/>
       <path id="DejaVuSans-28" d="M 1984 4856 
Q 1566 4138 1362 3434 
Q 1159 2731 1159 2009 
Q 1159 1288 1364 580 
Q 1569 -128 1984 -844 
L 1484 -844 
Q 1016 -109 783 600 
Q 550 1309 550 2009 
Q 550 2706 781 3412 
Q 1013 4119 1484 4856 
L 1984 4856 
z
" transform="scale(0.015625)"/>
       <path id="DejaVuSans-2c" d="M 750 794 
L 1409 794 
L 1409 256 
L 897 -744 
L 494 -744 
L 750 256 
L 750 794 
z
" transform="scale(0.015625)"/>
       <path id="STIXNonUnicode-Italic-e22e" d="M 2080 3341 
L 2099 3328 
Q 2810 4288 3853 4288 
Q 4154 4288 4346 4102 
Q 4538 3917 4538 3622 
Q 4538 3213 4173 2893 
Q 3808 2573 3430 2451 
Q 3866 2406 4144 2169 
Q 4422 1933 4422 1485 
Q 4422 1152 4211 857 
Q 4000 563 3677 377 
Q 3354 192 2986 86 
Q 2618 -19 2291 -19 
Q 1792 -19 1517 186 
L 1587 326 
Q 1843 198 2272 198 
Q 2854 198 3296 595 
Q 3738 992 3738 1478 
Q 3738 1798 3459 2003 
Q 3181 2208 2630 2208 
L 2208 2208 
L 2278 2451 
L 2400 2451 
Q 2611 2451 2867 2508 
Q 3123 2566 3385 2681 
Q 3648 2797 3824 3008 
Q 4000 3219 4000 3482 
Q 4000 3987 3456 3987 
Q 3245 3987 3008 3865 
Q 2771 3744 2624 3590 
Q 2349 3315 2144 2908 
Q 1939 2502 1715 1728 
L 1478 909 
Q 1344 448 1193 253 
Q 1043 58 666 13 
Q 544 0 224 0 
L 282 154 
Q 474 154 576 333 
Q 678 512 870 1190 
L 1536 3514 
Q 1555 3571 1555 3667 
Q 1555 3859 1286 3859 
L 1146 3859 
L 1171 4013 
Q 1875 4077 2355 4237 
L 2080 3341 
z
" transform="scale(0.015625)"/>
       <path id="DejaVuSans-2b" d="M 2944 4013 
L 2944 2272 
L 4684 2272 
L 4684 1741 
L 2944 1741 
L 2944 0 
L 2419 0 
L 2419 1741 
L 678 1741 
L 678 2272 
L 2419 2272 
L 2419 4013 
L 2944 4013 
z
" transform="scale(0.015625)"/>
       <path id="DejaVuSans-29" d="M 513 4856 
L 1013 4856 
Q 1481 4119 1714 3412 
Q 1947 2706 1947 2009 
Q 1947 1309 1714 600 
Q 1481 -109 1013 -844 
L 513 -844 
Q 928 -128 1133 580 
Q 1338 1288 1338 2009 
Q 1338 2731 1133 3434 
Q 928 4138 513 4856 
z
" transform="scale(0.015625)"/>
       <path id="DejaVuSans-3d" d="M 678 2906 
L 4684 2906 
L 4684 2381 
L 678 2381 
L 678 2906 
z
M 678 1631 
L 4684 1631 
L 4684 1100 
L 678 1100 
L 678 1631 
z
" transform="scale(0.015625)"/>
      </defs>
      <use xlink:href="#DejaVuSans-2202" transform="translate(0 55.810938) scale(0.7)"/>
      <use xlink:href="#STIXNonUnicode-Italic-e238" transform="translate(36.196289 55.810938) scale(0.7)"/>
      <use xlink:href="#DejaVuSans-28" transform="translate(84.706281 55.810938) scale(0.7)"/>
      <use xlink:href="#DejaVuSans-Oblique-3bb" transform="translate(112.015851 55.810938) scale(0.7)"/>
      <use xlink:href="#DejaVuSans-2c" transform="translate(153.441632 55.810938) scale(0.7)"/>
      <use xlink:href="#STIXNonUnicode-Italic-e22e" transform="translate(189.330304 55.810938) scale(0.7)"/>
      <use xlink:href="#DejaVuSans-Oblique-74" transform="translate(240.680222 44.326562) scale(0.49)"/>
      <use xlink:href="#DejaVuSans-2b" transform="translate(269.439011 44.326562) scale(0.49)"/>
      <use xlink:href="#DejaVuSans-31" transform="translate(320.042038 44.326562) scale(0.49)"/>
      <use xlink:href="#DejaVuSans-29" transform="translate(353.131393 55.810938) scale(0.7)"/>
      <use xlink:href="#DejaVuSans-2202" transform="translate(151 -40.1125) scale(0.7)"/>
      <use xlink:href="#DejaVuSans-Oblique-3bb" transform="translate(187.196289 -40.1125) scale(0.7)"/>
      <use xlink:href="#DejaVuSans-28" transform="translate(392.940964 0.529687)"/>
      <use xlink:href="#DejaVuSans-Oblique-3bb" transform="translate(431.954636 0.529687)"/>
      <use xlink:href="#DejaVuSans-Oblique-74" transform="translate(491.134323 -15.876563) scale(0.7)"/>
      <use xlink:href="#DejaVuSans-29" transform="translate(521.314987 0.529687)"/>
      <use xlink:href="#DejaVuSans-20" transform="translate(560.328659 0.529687)"/>
      <use xlink:href="#DejaVuSans-3d" transform="translate(592.115768 0.529687)"/>
      <use xlink:href="#DejaVuSans-20" transform="translate(675.904831 0.529687)"/>
      <use xlink:href="#DejaVuSans-30" transform="translate(707.69194 0.529687)"/>
      <use xlink:href="#DejaVuSans-2e" transform="translate(771.314987 0.529687)"/>
      <use xlink:href="#DejaVuSans-30" transform="translate(803.102097 0.529687)"/>
      <use xlink:href="#DejaVuSans-30" transform="translate(866.725143 0.529687)"/>
      <use xlink:href="#DejaVuSans-31" transform="translate(930.34819 0.529687)"/>
      <path d="M 0 19.326562 
L 0 25.576562 
L 380.440964 25.576562 
L 380.440964 19.326562 
L 0 19.326562 
z
"/>
     </g>
    </g>
    <g id="line2d_19">
     <path d="M 82.8 340.32 
L 94.8 340.32 
L 106.8 340.32 
" style="fill: none; stroke: #31688e; stroke-width: 1.5; stroke-linecap: square"/>
    </g>
    <g id="text_18">
     <!-- $\frac{\partial\mathcal{L}(\lambda, \mathcal{B}_{t+1})}{\partial \lambda} (\lambda_t)$ = 0.010 -->
     <g transform="translate(116.4 344.52) scale(0.12 -0.12)">
      <use xlink:href="#DejaVuSans-2202" transform="translate(0 55.810938) scale(0.7)"/>
      <use xlink:href="#STIXNonUnicode-Italic-e238" transform="translate(36.196289 55.810938) scale(0.7)"/>
      <use xlink:href="#DejaVuSans-28" transform="translate(84.706281 55.810938) scale(0.7)"/>
      <use xlink:href="#DejaVuSans-Oblique-3bb" transform="translate(112.015851 55.810938) scale(0.7)"/>
      <use xlink:href="#DejaVuSans-2c" transform="translate(153.441632 55.810938) scale(0.7)"/>
      <use xlink:href="#STIXNonUnicode-Italic-e22e" transform="translate(189.330304 55.810938) scale(0.7)"/>
      <use xlink:href="#DejaVuSans-Oblique-74" transform="translate(240.680222 44.326562) scale(0.49)"/>
      <use xlink:href="#DejaVuSans-2b" transform="translate(269.439011 44.326562) scale(0.49)"/>
      <use xlink:href="#DejaVuSans-31" transform="translate(320.042038 44.326562) scale(0.49)"/>
      <use xlink:href="#DejaVuSans-29" transform="translate(353.131393 55.810938) scale(0.7)"/>
      <use xlink:href="#DejaVuSans-2202" transform="translate(151 -40.1125) scale(0.7)"/>
      <use xlink:href="#DejaVuSans-Oblique-3bb" transform="translate(187.196289 -40.1125) scale(0.7)"/>
      <use xlink:href="#DejaVuSans-28" transform="translate(392.940964 0.529687)"/>
      <use xlink:href="#DejaVuSans-Oblique-3bb" transform="translate(431.954636 0.529687)"/>
      <use xlink:href="#DejaVuSans-Oblique-74" transform="translate(491.134323 -15.876563) scale(0.7)"/>
      <use xlink:href="#DejaVuSans-29" transform="translate(521.314987 0.529687)"/>
      <use xlink:href="#DejaVuSans-20" transform="translate(560.328659 0.529687)"/>
      <use xlink:href="#DejaVuSans-3d" transform="translate(592.115768 0.529687)"/>
      <use xlink:href="#DejaVuSans-20" transform="translate(675.904831 0.529687)"/>
      <use xlink:href="#DejaVuSans-30" transform="translate(707.69194 0.529687)"/>
      <use xlink:href="#DejaVuSans-2e" transform="translate(771.314987 0.529687)"/>
      <use xlink:href="#DejaVuSans-30" transform="translate(803.102097 0.529687)"/>
      <use xlink:href="#DejaVuSans-31" transform="translate(866.725143 0.529687)"/>
      <use xlink:href="#DejaVuSans-30" transform="translate(930.34819 0.529687)"/>
      <path d="M 0 19.326562 
L 0 25.576562 
L 380.440964 25.576562 
L 380.440964 19.326562 
L 0 19.326562 
z
"/>
     </g>
    </g>
    <g id="line2d_20">
     <path d="M 82.8 364.44 
L 94.8 364.44 
L 106.8 364.44 
" style="fill: none; stroke: #35b779; stroke-width: 1.5; stroke-linecap: square"/>
    </g>
    <g id="text_19">
     <!-- $\frac{\partial\mathcal{L}(\lambda, \mathcal{B}_{t+1})}{\partial \lambda} (\lambda_t)$ = 0.100 -->
     <g transform="translate(116.4 368.64) scale(0.12 -0.12)">
      <use xlink:href="#DejaVuSans-2202" transform="translate(0 55.810938) scale(0.7)"/>
      <use xlink:href="#STIXNonUnicode-Italic-e238" transform="translate(36.196289 55.810938) scale(0.7)"/>
      <use xlink:href="#DejaVuSans-28" transform="translate(84.706281 55.810938) scale(0.7)"/>
      <use xlink:href="#DejaVuSans-Oblique-3bb" transform="translate(112.015851 55.810938) scale(0.7)"/>
      <use xlink:href="#DejaVuSans-2c" transform="translate(153.441632 55.810938) scale(0.7)"/>
      <use xlink:href="#STIXNonUnicode-Italic-e22e" transform="translate(189.330304 55.810938) scale(0.7)"/>
      <use xlink:href="#DejaVuSans-Oblique-74" transform="translate(240.680222 44.326562) scale(0.49)"/>
      <use xlink:href="#DejaVuSans-2b" transform="translate(269.439011 44.326562) scale(0.49)"/>
      <use xlink:href="#DejaVuSans-31" transform="translate(320.042038 44.326562) scale(0.49)"/>
      <use xlink:href="#DejaVuSans-29" transform="translate(353.131393 55.810938) scale(0.7)"/>
      <use xlink:href="#DejaVuSans-2202" transform="translate(151 -40.1125) scale(0.7)"/>
      <use xlink:href="#DejaVuSans-Oblique-3bb" transform="translate(187.196289 -40.1125) scale(0.7)"/>
      <use xlink:href="#DejaVuSans-28" transform="translate(392.940964 0.529687)"/>
      <use xlink:href="#DejaVuSans-Oblique-3bb" transform="translate(431.954636 0.529687)"/>
      <use xlink:href="#DejaVuSans-Oblique-74" transform="translate(491.134323 -15.876563) scale(0.7)"/>
      <use xlink:href="#DejaVuSans-29" transform="translate(521.314987 0.529687)"/>
      <use xlink:href="#DejaVuSans-20" transform="translate(560.328659 0.529687)"/>
      <use xlink:href="#DejaVuSans-3d" transform="translate(592.115768 0.529687)"/>
      <use xlink:href="#DejaVuSans-20" transform="translate(675.904831 0.529687)"/>
      <use xlink:href="#DejaVuSans-30" transform="translate(707.69194 0.529687)"/>
      <use xlink:href="#DejaVuSans-2e" transform="translate(771.314987 0.529687)"/>
      <use xlink:href="#DejaVuSans-31" transform="translate(803.102097 0.529687)"/>
      <use xlink:href="#DejaVuSans-30" transform="translate(866.725143 0.529687)"/>
      <use xlink:href="#DejaVuSans-30" transform="translate(930.34819 0.529687)"/>
      <path d="M 0 19.326562 
L 0 25.576562 
L 380.440964 25.576562 
L 380.440964 19.326562 
L 0 19.326562 
z
"/>
     </g>
    </g>
   </g>
  </g>
 </g>
 <defs>
  <clipPath id="p206ac3e858">
   <rect x="72" y="51.84" width="446.4" height="332.64"/>
  </clipPath>
 </defs>
</svg>
