<?xml version="1.0" encoding="utf-8" standalone="no"?>
<!DOCTYPE svg PUBLIC "-//W3C//DTD SVG 1.1//EN"
  "http://www.w3.org/Graphics/SVG/1.1/DTD/svg11.dtd">
<!-- Created with matplotlib (https://matplotlib.org/) -->
<svg height="432pt" version="1.1" viewBox="0 0 576 432" width="576pt" xmlns="http://www.w3.org/2000/svg" xmlns:xlink="http://www.w3.org/1999/xlink">
 <metadata>
  <rdf:RDF xmlns:cc="http://creativecommons.org/ns#" xmlns:dc="http://purl.org/dc/elements/1.1/" xmlns:rdf="http://www.w3.org/1999/02/22-rdf-syntax-ns#">
   <cc:Work>
    <dc:type rdf:resource="http://purl.org/dc/dcmitype/StillImage"/>
    <dc:date>2024-07-01T09:33:46.943116</dc:date>
    <dc:format>image/svg+xml</dc:format>
    <dc:creator>
     <cc:Agent>
      <dc:title>Matplotlib v3.3.2, https://matplotlib.org/</dc:title>
     </cc:Agent>
    </dc:creator>
   </cc:Work>
  </rdf:RDF>
 </metadata>
 <defs>
  <style type="text/css">*{stroke-linecap:butt;stroke-linejoin:round;}</style>
 </defs>
 <g id="figure_1">
  <g id="patch_1">
   <path d="M 0 432 
L 576 432 
L 576 0 
L 0 0 
z
" style="fill:#ffffff;"/>
  </g>
  <g id="axes_1">
   <g id="patch_2">
    <path d="M 72 384.48 
L 518.4 384.48 
L 518.4 51.84 
L 72 51.84 
z
" style="fill:#ffffff;"/>
   </g>
   <g id="matplotlib.axis_1">
    <g id="xtick_1">
     <g id="line2d_1">
      <defs>
       <path d="M 0 0 
L 0 3.5 
" id="m11dc8ed35e" style="stroke:#000000;stroke-width:0.8;"/>
      </defs>
      <g>
       <use style="stroke:#000000;stroke-width:0.8;" x="92.290909" xlink:href="#m11dc8ed35e" y="384.48"/>
      </g>
     </g>
     <g id="text_1">
      <!-- −10.0 -->
      <g transform="translate(76.968253 399.078438)scale(0.1 -0.1)">
       <defs>
        <path d="M 10.59375 35.5 
L 73.1875 35.5 
L 73.1875 27.203125 
L 10.59375 27.203125 
z
" id="DejaVuSans-8722"/>
        <path d="M 12.40625 8.296875 
L 28.515625 8.296875 
L 28.515625 63.921875 
L 10.984375 60.40625 
L 10.984375 69.390625 
L 28.421875 72.90625 
L 38.28125 72.90625 
L 38.28125 8.296875 
L 54.390625 8.296875 
L 54.390625 0 
L 12.40625 0 
z
" id="DejaVuSans-49"/>
        <path d="M 31.78125 66.40625 
Q 24.171875 66.40625 20.328125 58.90625 
Q 16.5 51.421875 16.5 36.375 
Q 16.5 21.390625 20.328125 13.890625 
Q 24.171875 6.390625 31.78125 6.390625 
Q 39.453125 6.390625 43.28125 13.890625 
Q 47.125 21.390625 47.125 36.375 
Q 47.125 51.421875 43.28125 58.90625 
Q 39.453125 66.40625 31.78125 66.40625 
z
M 31.78125 74.21875 
Q 44.046875 74.21875 50.515625 64.515625 
Q 56.984375 54.828125 56.984375 36.375 
Q 56.984375 17.96875 50.515625 8.265625 
Q 44.046875 -1.421875 31.78125 -1.421875 
Q 19.53125 -1.421875 13.0625 8.265625 
Q 6.59375 17.96875 6.59375 36.375 
Q 6.59375 54.828125 13.0625 64.515625 
Q 19.53125 74.21875 31.78125 74.21875 
z
" id="DejaVuSans-48"/>
        <path d="M 10.6875 12.40625 
L 21 12.40625 
L 21 0 
L 10.6875 0 
z
" id="DejaVuSans-46"/>
       </defs>
       <use xlink:href="#DejaVuSans-8722"/>
       <use x="83.789062" xlink:href="#DejaVuSans-49"/>
       <use x="147.412109" xlink:href="#DejaVuSans-48"/>
       <use x="211.035156" xlink:href="#DejaVuSans-46"/>
       <use x="242.822266" xlink:href="#DejaVuSans-48"/>
      </g>
     </g>
    </g>
    <g id="xtick_2">
     <g id="line2d_2">
      <g>
       <use style="stroke:#000000;stroke-width:0.8;" x="143.018182" xlink:href="#m11dc8ed35e" y="384.48"/>
      </g>
     </g>
     <g id="text_2">
      <!-- −7.5 -->
      <g transform="translate(130.876776 399.078438)scale(0.1 -0.1)">
       <defs>
        <path d="M 8.203125 72.90625 
L 55.078125 72.90625 
L 55.078125 68.703125 
L 28.609375 0 
L 18.3125 0 
L 43.21875 64.59375 
L 8.203125 64.59375 
z
" id="DejaVuSans-55"/>
        <path d="M 10.796875 72.90625 
L 49.515625 72.90625 
L 49.515625 64.59375 
L 19.828125 64.59375 
L 19.828125 46.734375 
Q 21.96875 47.46875 24.109375 47.828125 
Q 26.265625 48.1875 28.421875 48.1875 
Q 40.625 48.1875 47.75 41.5 
Q 54.890625 34.8125 54.890625 23.390625 
Q 54.890625 11.625 47.5625 5.09375 
Q 40.234375 -1.421875 26.90625 -1.421875 
Q 22.3125 -1.421875 17.546875 -0.640625 
Q 12.796875 0.140625 7.71875 1.703125 
L 7.71875 11.625 
Q 12.109375 9.234375 16.796875 8.0625 
Q 21.484375 6.890625 26.703125 6.890625 
Q 35.15625 6.890625 40.078125 11.328125 
Q 45.015625 15.765625 45.015625 23.390625 
Q 45.015625 31 40.078125 35.4375 
Q 35.15625 39.890625 26.703125 39.890625 
Q 22.75 39.890625 18.8125 39.015625 
Q 14.890625 38.140625 10.796875 36.28125 
z
" id="DejaVuSans-53"/>
       </defs>
       <use xlink:href="#DejaVuSans-8722"/>
       <use x="83.789062" xlink:href="#DejaVuSans-55"/>
       <use x="147.412109" xlink:href="#DejaVuSans-46"/>
       <use x="179.199219" xlink:href="#DejaVuSans-53"/>
      </g>
     </g>
    </g>
    <g id="xtick_3">
     <g id="line2d_3">
      <g>
       <use style="stroke:#000000;stroke-width:0.8;" x="193.745455" xlink:href="#m11dc8ed35e" y="384.48"/>
      </g>
     </g>
     <g id="text_3">
      <!-- −5.0 -->
      <g transform="translate(181.604048 399.078438)scale(0.1 -0.1)">
       <use xlink:href="#DejaVuSans-8722"/>
       <use x="83.789062" xlink:href="#DejaVuSans-53"/>
       <use x="147.412109" xlink:href="#DejaVuSans-46"/>
       <use x="179.199219" xlink:href="#DejaVuSans-48"/>
      </g>
     </g>
    </g>
    <g id="xtick_4">
     <g id="line2d_4">
      <g>
       <use style="stroke:#000000;stroke-width:0.8;" x="244.472727" xlink:href="#m11dc8ed35e" y="384.48"/>
      </g>
     </g>
     <g id="text_4">
      <!-- −2.5 -->
      <g transform="translate(232.331321 399.078438)scale(0.1 -0.1)">
       <defs>
        <path d="M 19.1875 8.296875 
L 53.609375 8.296875 
L 53.609375 0 
L 7.328125 0 
L 7.328125 8.296875 
Q 12.9375 14.109375 22.625 23.890625 
Q 32.328125 33.6875 34.8125 36.53125 
Q 39.546875 41.84375 41.421875 45.53125 
Q 43.3125 49.21875 43.3125 52.78125 
Q 43.3125 58.59375 39.234375 62.25 
Q 35.15625 65.921875 28.609375 65.921875 
Q 23.96875 65.921875 18.8125 64.3125 
Q 13.671875 62.703125 7.8125 59.421875 
L 7.8125 69.390625 
Q 13.765625 71.78125 18.9375 73 
Q 24.125 74.21875 28.421875 74.21875 
Q 39.75 74.21875 46.484375 68.546875 
Q 53.21875 62.890625 53.21875 53.421875 
Q 53.21875 48.921875 51.53125 44.890625 
Q 49.859375 40.875 45.40625 35.40625 
Q 44.1875 33.984375 37.640625 27.21875 
Q 31.109375 20.453125 19.1875 8.296875 
z
" id="DejaVuSans-50"/>
       </defs>
       <use xlink:href="#DejaVuSans-8722"/>
       <use x="83.789062" xlink:href="#DejaVuSans-50"/>
       <use x="147.412109" xlink:href="#DejaVuSans-46"/>
       <use x="179.199219" xlink:href="#DejaVuSans-53"/>
      </g>
     </g>
    </g>
    <g id="xtick_5">
     <g id="line2d_5">
      <g>
       <use style="stroke:#000000;stroke-width:0.8;" x="295.2" xlink:href="#m11dc8ed35e" y="384.48"/>
      </g>
     </g>
     <g id="text_5">
      <!-- 0.0 -->
      <g transform="translate(287.248437 399.078438)scale(0.1 -0.1)">
       <use xlink:href="#DejaVuSans-48"/>
       <use x="63.623047" xlink:href="#DejaVuSans-46"/>
       <use x="95.410156" xlink:href="#DejaVuSans-48"/>
      </g>
     </g>
    </g>
    <g id="xtick_6">
     <g id="line2d_6">
      <g>
       <use style="stroke:#000000;stroke-width:0.8;" x="345.927273" xlink:href="#m11dc8ed35e" y="384.48"/>
      </g>
     </g>
     <g id="text_6">
      <!-- 2.5 -->
      <g transform="translate(337.97571 399.078438)scale(0.1 -0.1)">
       <use xlink:href="#DejaVuSans-50"/>
       <use x="63.623047" xlink:href="#DejaVuSans-46"/>
       <use x="95.410156" xlink:href="#DejaVuSans-53"/>
      </g>
     </g>
    </g>
    <g id="xtick_7">
     <g id="line2d_7">
      <g>
       <use style="stroke:#000000;stroke-width:0.8;" x="396.654545" xlink:href="#m11dc8ed35e" y="384.48"/>
      </g>
     </g>
     <g id="text_7">
      <!-- 5.0 -->
      <g transform="translate(388.702983 399.078438)scale(0.1 -0.1)">
       <use xlink:href="#DejaVuSans-53"/>
       <use x="63.623047" xlink:href="#DejaVuSans-46"/>
       <use x="95.410156" xlink:href="#DejaVuSans-48"/>
      </g>
     </g>
    </g>
    <g id="xtick_8">
     <g id="line2d_8">
      <g>
       <use style="stroke:#000000;stroke-width:0.8;" x="447.381818" xlink:href="#m11dc8ed35e" y="384.48"/>
      </g>
     </g>
     <g id="text_8">
      <!-- 7.5 -->
      <g transform="translate(439.430256 399.078438)scale(0.1 -0.1)">
       <use xlink:href="#DejaVuSans-55"/>
       <use x="63.623047" xlink:href="#DejaVuSans-46"/>
       <use x="95.410156" xlink:href="#DejaVuSans-53"/>
      </g>
     </g>
    </g>
    <g id="xtick_9">
     <g id="line2d_9">
      <g>
       <use style="stroke:#000000;stroke-width:0.8;" x="498.109091" xlink:href="#m11dc8ed35e" y="384.48"/>
      </g>
     </g>
     <g id="text_9">
      <!-- 10.0 -->
      <g transform="translate(486.976278 399.078438)scale(0.1 -0.1)">
       <use xlink:href="#DejaVuSans-49"/>
       <use x="63.623047" xlink:href="#DejaVuSans-48"/>
       <use x="127.246094" xlink:href="#DejaVuSans-46"/>
       <use x="159.033203" xlink:href="#DejaVuSans-48"/>
      </g>
     </g>
    </g>
    <g id="text_10">
     <!-- $\lambda^{(i)}}$ [-] -->
     <g transform="translate(274.9 417.086563)scale(0.14 -0.14)">
      <defs>
       <path d="M 36.71875 67.4375 
L 48.828125 0 
L 39.3125 0 
L 31.84375 40.4375 
L 5.125 0 
L -4.390625 0 
L 29.734375 52.4375 
L 28.03125 62.109375 
Q 26.953125 68.265625 21.734375 68.265625 
L 17.046875 68.265625 
L 18.5 75.984375 
L 24.21875 75.875 
Q 35.203125 75.734375 36.71875 67.4375 
z
" id="DejaVuSans-Oblique-955"/>
       <path d="M 31 75.875 
Q 24.46875 64.65625 21.28125 53.65625 
Q 18.109375 42.671875 18.109375 31.390625 
Q 18.109375 20.125 21.3125 9.0625 
Q 24.515625 -2 31 -13.1875 
L 23.1875 -13.1875 
Q 15.875 -1.703125 12.234375 9.375 
Q 8.59375 20.453125 8.59375 31.390625 
Q 8.59375 42.28125 12.203125 53.3125 
Q 15.828125 64.359375 23.1875 75.875 
z
" id="DejaVuSans-40"/>
       <path d="M 18.3125 75.984375 
L 27.296875 75.984375 
L 25.09375 64.59375 
L 16.109375 64.59375 
z
M 14.203125 54.6875 
L 23.1875 54.6875 
L 12.5 0 
L 3.515625 0 
z
" id="DejaVuSans-Oblique-105"/>
       <path d="M 8.015625 75.875 
L 15.828125 75.875 
Q 23.140625 64.359375 26.78125 53.3125 
Q 30.421875 42.28125 30.421875 31.390625 
Q 30.421875 20.453125 26.78125 9.375 
Q 23.140625 -1.703125 15.828125 -13.1875 
L 8.015625 -13.1875 
Q 14.5 -2 17.703125 9.0625 
Q 20.90625 20.125 20.90625 31.390625 
Q 20.90625 42.671875 17.703125 53.65625 
Q 14.5 64.65625 8.015625 75.875 
z
" id="DejaVuSans-41"/>
       <path id="DejaVuSans-32"/>
       <path d="M 8.59375 75.984375 
L 29.296875 75.984375 
L 29.296875 69 
L 17.578125 69 
L 17.578125 -6.203125 
L 29.296875 -6.203125 
L 29.296875 -13.1875 
L 8.59375 -13.1875 
z
" id="DejaVuSans-91"/>
       <path d="M 4.890625 31.390625 
L 31.203125 31.390625 
L 31.203125 23.390625 
L 4.890625 23.390625 
z
" id="DejaVuSans-45"/>
       <path d="M 30.421875 75.984375 
L 30.421875 -13.1875 
L 9.71875 -13.1875 
L 9.71875 -6.203125 
L 21.390625 -6.203125 
L 21.390625 69 
L 9.71875 69 
L 9.71875 75.984375 
z
" id="DejaVuSans-93"/>
      </defs>
      <use transform="translate(0 0.529687)" xlink:href="#DejaVuSans-Oblique-955"/>
      <use transform="translate(66.627396 38.810937)scale(0.7)" xlink:href="#DejaVuSans-40"/>
      <use transform="translate(93.936966 38.810937)scale(0.7)" xlink:href="#DejaVuSans-Oblique-105"/>
      <use transform="translate(113.385208 38.810937)scale(0.7)" xlink:href="#DejaVuSans-41"/>
      <use transform="translate(143.429154 0.529687)" xlink:href="#DejaVuSans-32"/>
      <use transform="translate(175.216263 0.529687)" xlink:href="#DejaVuSans-91"/>
      <use transform="translate(214.229935 0.529687)" xlink:href="#DejaVuSans-45"/>
      <use transform="translate(250.313919 0.529687)" xlink:href="#DejaVuSans-93"/>
     </g>
    </g>
   </g>
   <g id="matplotlib.axis_2">
    <g id="ytick_1">
     <g id="line2d_10">
      <defs>
       <path d="M 0 0 
L -3.5 0 
" id="m1947c7deb9" style="stroke:#000000;stroke-width:0.8;"/>
      </defs>
      <g>
       <use style="stroke:#000000;stroke-width:0.8;" x="72" xlink:href="#m1947c7deb9" y="328.874925"/>
      </g>
     </g>
     <g id="text_11">
      <!-- 2 -->
      <g transform="translate(58.6375 332.674144)scale(0.1 -0.1)">
       <use xlink:href="#DejaVuSans-50"/>
      </g>
     </g>
    </g>
    <g id="ytick_2">
     <g id="line2d_11">
      <g>
       <use style="stroke:#000000;stroke-width:0.8;" x="72" xlink:href="#m1947c7deb9" y="263.396186"/>
      </g>
     </g>
     <g id="text_12">
      <!-- 4 -->
      <g transform="translate(58.6375 267.195405)scale(0.1 -0.1)">
       <defs>
        <path d="M 37.796875 64.3125 
L 12.890625 25.390625 
L 37.796875 25.390625 
z
M 35.203125 72.90625 
L 47.609375 72.90625 
L 47.609375 25.390625 
L 58.015625 25.390625 
L 58.015625 17.1875 
L 47.609375 17.1875 
L 47.609375 0 
L 37.796875 0 
L 37.796875 17.1875 
L 4.890625 17.1875 
L 4.890625 26.703125 
z
" id="DejaVuSans-52"/>
       </defs>
       <use xlink:href="#DejaVuSans-52"/>
      </g>
     </g>
    </g>
    <g id="ytick_3">
     <g id="line2d_12">
      <g>
       <use style="stroke:#000000;stroke-width:0.8;" x="72" xlink:href="#m1947c7deb9" y="197.917447"/>
      </g>
     </g>
     <g id="text_13">
      <!-- 6 -->
      <g transform="translate(58.6375 201.716666)scale(0.1 -0.1)">
       <defs>
        <path d="M 33.015625 40.375 
Q 26.375 40.375 22.484375 35.828125 
Q 18.609375 31.296875 18.609375 23.390625 
Q 18.609375 15.53125 22.484375 10.953125 
Q 26.375 6.390625 33.015625 6.390625 
Q 39.65625 6.390625 43.53125 10.953125 
Q 47.40625 15.53125 47.40625 23.390625 
Q 47.40625 31.296875 43.53125 35.828125 
Q 39.65625 40.375 33.015625 40.375 
z
M 52.59375 71.296875 
L 52.59375 62.3125 
Q 48.875 64.0625 45.09375 64.984375 
Q 41.3125 65.921875 37.59375 65.921875 
Q 27.828125 65.921875 22.671875 59.328125 
Q 17.53125 52.734375 16.796875 39.40625 
Q 19.671875 43.65625 24.015625 45.921875 
Q 28.375 48.1875 33.59375 48.1875 
Q 44.578125 48.1875 50.953125 41.515625 
Q 57.328125 34.859375 57.328125 23.390625 
Q 57.328125 12.15625 50.6875 5.359375 
Q 44.046875 -1.421875 33.015625 -1.421875 
Q 20.359375 -1.421875 13.671875 8.265625 
Q 6.984375 17.96875 6.984375 36.375 
Q 6.984375 53.65625 15.1875 63.9375 
Q 23.390625 74.21875 37.203125 74.21875 
Q 40.921875 74.21875 44.703125 73.484375 
Q 48.484375 72.75 52.59375 71.296875 
z
" id="DejaVuSans-54"/>
       </defs>
       <use xlink:href="#DejaVuSans-54"/>
      </g>
     </g>
    </g>
    <g id="ytick_4">
     <g id="line2d_13">
      <g>
       <use style="stroke:#000000;stroke-width:0.8;" x="72" xlink:href="#m1947c7deb9" y="132.438708"/>
      </g>
     </g>
     <g id="text_14">
      <!-- 8 -->
      <g transform="translate(58.6375 136.237927)scale(0.1 -0.1)">
       <defs>
        <path d="M 31.78125 34.625 
Q 24.75 34.625 20.71875 30.859375 
Q 16.703125 27.09375 16.703125 20.515625 
Q 16.703125 13.921875 20.71875 10.15625 
Q 24.75 6.390625 31.78125 6.390625 
Q 38.8125 6.390625 42.859375 10.171875 
Q 46.921875 13.96875 46.921875 20.515625 
Q 46.921875 27.09375 42.890625 30.859375 
Q 38.875 34.625 31.78125 34.625 
z
M 21.921875 38.8125 
Q 15.578125 40.375 12.03125 44.71875 
Q 8.5 49.078125 8.5 55.328125 
Q 8.5 64.0625 14.71875 69.140625 
Q 20.953125 74.21875 31.78125 74.21875 
Q 42.671875 74.21875 48.875 69.140625 
Q 55.078125 64.0625 55.078125 55.328125 
Q 55.078125 49.078125 51.53125 44.71875 
Q 48 40.375 41.703125 38.8125 
Q 48.828125 37.15625 52.796875 32.3125 
Q 56.78125 27.484375 56.78125 20.515625 
Q 56.78125 9.90625 50.3125 4.234375 
Q 43.84375 -1.421875 31.78125 -1.421875 
Q 19.734375 -1.421875 13.25 4.234375 
Q 6.78125 9.90625 6.78125 20.515625 
Q 6.78125 27.484375 10.78125 32.3125 
Q 14.796875 37.15625 21.921875 38.8125 
z
M 18.3125 54.390625 
Q 18.3125 48.734375 21.84375 45.5625 
Q 25.390625 42.390625 31.78125 42.390625 
Q 38.140625 42.390625 41.71875 45.5625 
Q 45.3125 48.734375 45.3125 54.390625 
Q 45.3125 60.0625 41.71875 63.234375 
Q 38.140625 66.40625 31.78125 66.40625 
Q 25.390625 66.40625 21.84375 63.234375 
Q 18.3125 60.0625 18.3125 54.390625 
z
" id="DejaVuSans-56"/>
       </defs>
       <use xlink:href="#DejaVuSans-56"/>
      </g>
     </g>
    </g>
    <g id="ytick_5">
     <g id="line2d_14">
      <g>
       <use style="stroke:#000000;stroke-width:0.8;" x="72" xlink:href="#m1947c7deb9" y="66.959969"/>
      </g>
     </g>
     <g id="text_15">
      <!-- 10 -->
      <g transform="translate(52.275 70.759188)scale(0.1 -0.1)">
       <use xlink:href="#DejaVuSans-49"/>
       <use x="63.623047" xlink:href="#DejaVuSans-48"/>
      </g>
     </g>
    </g>
    <g id="text_16">
     <!-- Learning rate [-] -->
     <g transform="translate(45.363437 275.206719)rotate(-90)scale(0.14 -0.14)">
      <defs>
       <path d="M 9.8125 72.90625 
L 19.671875 72.90625 
L 19.671875 8.296875 
L 55.171875 8.296875 
L 55.171875 0 
L 9.8125 0 
z
" id="DejaVuSans-76"/>
       <path d="M 56.203125 29.59375 
L 56.203125 25.203125 
L 14.890625 25.203125 
Q 15.484375 15.921875 20.484375 11.0625 
Q 25.484375 6.203125 34.421875 6.203125 
Q 39.59375 6.203125 44.453125 7.46875 
Q 49.3125 8.734375 54.109375 11.28125 
L 54.109375 2.78125 
Q 49.265625 0.734375 44.1875 -0.34375 
Q 39.109375 -1.421875 33.890625 -1.421875 
Q 20.796875 -1.421875 13.15625 6.1875 
Q 5.515625 13.8125 5.515625 26.8125 
Q 5.515625 40.234375 12.765625 48.109375 
Q 20.015625 56 32.328125 56 
Q 43.359375 56 49.78125 48.890625 
Q 56.203125 41.796875 56.203125 29.59375 
z
M 47.21875 32.234375 
Q 47.125 39.59375 43.09375 43.984375 
Q 39.0625 48.390625 32.421875 48.390625 
Q 24.90625 48.390625 20.390625 44.140625 
Q 15.875 39.890625 15.1875 32.171875 
z
" id="DejaVuSans-101"/>
       <path d="M 34.28125 27.484375 
Q 23.390625 27.484375 19.1875 25 
Q 14.984375 22.515625 14.984375 16.5 
Q 14.984375 11.71875 18.140625 8.90625 
Q 21.296875 6.109375 26.703125 6.109375 
Q 34.1875 6.109375 38.703125 11.40625 
Q 43.21875 16.703125 43.21875 25.484375 
L 43.21875 27.484375 
z
M 52.203125 31.203125 
L 52.203125 0 
L 43.21875 0 
L 43.21875 8.296875 
Q 40.140625 3.328125 35.546875 0.953125 
Q 30.953125 -1.421875 24.3125 -1.421875 
Q 15.921875 -1.421875 10.953125 3.296875 
Q 6 8.015625 6 15.921875 
Q 6 25.140625 12.171875 29.828125 
Q 18.359375 34.515625 30.609375 34.515625 
L 43.21875 34.515625 
L 43.21875 35.40625 
Q 43.21875 41.609375 39.140625 45 
Q 35.0625 48.390625 27.6875 48.390625 
Q 23 48.390625 18.546875 47.265625 
Q 14.109375 46.140625 10.015625 43.890625 
L 10.015625 52.203125 
Q 14.9375 54.109375 19.578125 55.046875 
Q 24.21875 56 28.609375 56 
Q 40.484375 56 46.34375 49.84375 
Q 52.203125 43.703125 52.203125 31.203125 
z
" id="DejaVuSans-97"/>
       <path d="M 41.109375 46.296875 
Q 39.59375 47.171875 37.8125 47.578125 
Q 36.03125 48 33.890625 48 
Q 26.265625 48 22.1875 43.046875 
Q 18.109375 38.09375 18.109375 28.8125 
L 18.109375 0 
L 9.078125 0 
L 9.078125 54.6875 
L 18.109375 54.6875 
L 18.109375 46.1875 
Q 20.953125 51.171875 25.484375 53.578125 
Q 30.03125 56 36.53125 56 
Q 37.453125 56 38.578125 55.875 
Q 39.703125 55.765625 41.0625 55.515625 
z
" id="DejaVuSans-114"/>
       <path d="M 54.890625 33.015625 
L 54.890625 0 
L 45.90625 0 
L 45.90625 32.71875 
Q 45.90625 40.484375 42.875 44.328125 
Q 39.84375 48.1875 33.796875 48.1875 
Q 26.515625 48.1875 22.3125 43.546875 
Q 18.109375 38.921875 18.109375 30.90625 
L 18.109375 0 
L 9.078125 0 
L 9.078125 54.6875 
L 18.109375 54.6875 
L 18.109375 46.1875 
Q 21.34375 51.125 25.703125 53.5625 
Q 30.078125 56 35.796875 56 
Q 45.21875 56 50.046875 50.171875 
Q 54.890625 44.34375 54.890625 33.015625 
z
" id="DejaVuSans-110"/>
       <path d="M 9.421875 54.6875 
L 18.40625 54.6875 
L 18.40625 0 
L 9.421875 0 
z
M 9.421875 75.984375 
L 18.40625 75.984375 
L 18.40625 64.59375 
L 9.421875 64.59375 
z
" id="DejaVuSans-105"/>
       <path d="M 45.40625 27.984375 
Q 45.40625 37.75 41.375 43.109375 
Q 37.359375 48.484375 30.078125 48.484375 
Q 22.859375 48.484375 18.828125 43.109375 
Q 14.796875 37.75 14.796875 27.984375 
Q 14.796875 18.265625 18.828125 12.890625 
Q 22.859375 7.515625 30.078125 7.515625 
Q 37.359375 7.515625 41.375 12.890625 
Q 45.40625 18.265625 45.40625 27.984375 
z
M 54.390625 6.78125 
Q 54.390625 -7.171875 48.1875 -13.984375 
Q 42 -20.796875 29.203125 -20.796875 
Q 24.46875 -20.796875 20.265625 -20.09375 
Q 16.0625 -19.390625 12.109375 -17.921875 
L 12.109375 -9.1875 
Q 16.0625 -11.328125 19.921875 -12.34375 
Q 23.78125 -13.375 27.78125 -13.375 
Q 36.625 -13.375 41.015625 -8.765625 
Q 45.40625 -4.15625 45.40625 5.171875 
L 45.40625 9.625 
Q 42.625 4.78125 38.28125 2.390625 
Q 33.9375 0 27.875 0 
Q 17.828125 0 11.671875 7.65625 
Q 5.515625 15.328125 5.515625 27.984375 
Q 5.515625 40.671875 11.671875 48.328125 
Q 17.828125 56 27.875 56 
Q 33.9375 56 38.28125 53.609375 
Q 42.625 51.21875 45.40625 46.390625 
L 45.40625 54.6875 
L 54.390625 54.6875 
z
" id="DejaVuSans-103"/>
       <path d="M 18.3125 70.21875 
L 18.3125 54.6875 
L 36.8125 54.6875 
L 36.8125 47.703125 
L 18.3125 47.703125 
L 18.3125 18.015625 
Q 18.3125 11.328125 20.140625 9.421875 
Q 21.96875 7.515625 27.59375 7.515625 
L 36.8125 7.515625 
L 36.8125 0 
L 27.59375 0 
Q 17.1875 0 13.234375 3.875 
Q 9.28125 7.765625 9.28125 18.015625 
L 9.28125 47.703125 
L 2.6875 47.703125 
L 2.6875 54.6875 
L 9.28125 54.6875 
L 9.28125 70.21875 
z
" id="DejaVuSans-116"/>
      </defs>
      <use xlink:href="#DejaVuSans-76"/>
      <use x="53.962891" xlink:href="#DejaVuSans-101"/>
      <use x="115.486328" xlink:href="#DejaVuSans-97"/>
      <use x="176.765625" xlink:href="#DejaVuSans-114"/>
      <use x="216.128906" xlink:href="#DejaVuSans-110"/>
      <use x="279.507812" xlink:href="#DejaVuSans-105"/>
      <use x="307.291016" xlink:href="#DejaVuSans-110"/>
      <use x="370.669922" xlink:href="#DejaVuSans-103"/>
      <use x="434.146484" xlink:href="#DejaVuSans-32"/>
      <use x="465.933594" xlink:href="#DejaVuSans-114"/>
      <use x="507.046875" xlink:href="#DejaVuSans-97"/>
      <use x="568.326172" xlink:href="#DejaVuSans-116"/>
      <use x="607.535156" xlink:href="#DejaVuSans-101"/>
      <use x="669.058594" xlink:href="#DejaVuSans-32"/>
      <use x="700.845703" xlink:href="#DejaVuSans-91"/>
      <use x="739.859375" xlink:href="#DejaVuSans-45"/>
      <use x="775.943359" xlink:href="#DejaVuSans-93"/>
     </g>
    </g>
   </g>
   <g id="line2d_15">
    <path clip-path="url(#p6f4e5ede7e)" d="M 92.290909 66.96 
L 176.379359 67.067375 
L 188.15987 67.302763 
L 195.471905 67.663916 
L 200.752819 68.142841 
L 204.815061 68.722022 
L 208.064864 69.382132 
L 210.908433 70.157672 
L 213.752002 71.178124 
L 216.189347 72.303921 
L 218.220473 73.463719 
L 220.251593 74.868678 
L 222.282714 76.567598 
L 224.313835 78.617493 
L 225.938732 80.554112 
L 227.563633 82.795496 
L 229.18853 85.383576 
L 230.813426 88.364064 
L 232.438323 91.785884 
L 234.06322 95.700648 
L 235.688121 100.161247 
L 237.313018 105.220573 
L 238.937915 110.929143 
L 240.562811 117.332512 
L 242.593932 126.369765 
L 244.625058 136.59626 
L 246.656179 148.01735 
L 249.093524 163.230156 
L 251.530868 179.898861 
L 254.780667 203.812245 
L 263.311377 267.83507 
L 265.748724 284.278971 
L 268.186071 299.209056 
L 270.217192 310.357619 
L 272.248315 320.282237 
L 274.279436 328.989614 
L 275.904334 335.10801 
L 277.529232 340.510446 
L 279.154129 345.238939 
L 280.779026 349.339159 
L 282.403924 352.857625 
L 284.028821 355.839673 
L 285.653719 358.327669 
L 287.278617 360.359849 
L 288.903515 361.969426 
L 290.528412 363.183985 
L 291.747085 363.848919 
L 292.965758 364.310759 
L 294.184431 364.574333 
L 295.40312 364.642457 
L 296.621793 364.515896 
L 297.840466 364.193426 
L 299.059139 363.671765 
L 300.277812 362.945668 
L 301.496485 362.00791 
L 302.715159 360.849351 
L 304.340056 358.941874 
L 305.964954 356.591242 
L 307.589852 353.761635 
L 309.214749 350.413126 
L 310.839647 346.502865 
L 312.464544 341.986725 
L 314.089442 336.82134 
L 315.71434 330.96676 
L 317.339236 324.389567 
L 319.37036 315.117503 
L 321.40148 304.666549 
L 323.432604 293.067348 
L 325.869949 277.756293 
L 328.71352 258.314396 
L 333.181988 225.80481 
L 337.650454 193.576634 
L 340.494028 174.561309 
L 342.931373 159.709344 
L 344.962494 148.51963 
L 346.99362 138.47137 
L 349.02474 129.568843 
L 351.055861 121.774971 
L 353.086982 115.022595 
L 354.711879 110.312963 
L 356.33678 106.165527 
L 357.961677 102.529426 
L 359.586574 99.353984 
L 361.21147 96.590338 
L 362.836367 94.192186 
L 364.461268 92.116532 
L 366.492389 89.915894 
L 368.52351 88.089179 
L 370.554631 86.576627 
L 372.585756 85.32672 
L 375.023101 84.112282 
L 377.460446 83.150092 
L 380.304016 82.278635 
L 383.553809 81.536284 
L 387.209836 80.938682 
L 391.678302 80.446175 
L 397.36544 80.063135 
L 405.083709 79.791092 
L 416.86421 79.626954 
L 441.237679 79.558826 
L 498.109091 79.552051 
L 498.109091 79.552051 
" style="fill:none;stroke:#440154;stroke-linecap:square;stroke-width:1.5;"/>
   </g>
   <g id="line2d_16">
    <path clip-path="url(#p6f4e5ede7e)" d="M 92.290909 66.96 
L 176.379359 67.068374 
L 188.15987 67.305854 
L 195.471905 67.670223 
L 200.752819 68.153425 
L 204.815061 68.737758 
L 208.064864 69.403738 
L 210.908433 70.186116 
L 213.345778 71.050704 
L 215.783123 72.143124 
L 217.814244 73.268733 
L 219.845369 74.632665 
L 221.87649 76.282473 
L 223.907611 78.273856 
L 225.532507 80.15596 
L 227.157409 82.335117 
L 228.782306 84.852634 
L 230.407202 87.753441 
L 232.032099 91.085933 
L 233.656996 94.901284 
L 235.281892 99.252323 
L 236.906794 104.192066 
L 238.53169 109.771749 
L 240.156587 116.038206 
L 242.187708 124.895992 
L 244.218834 134.938897 
L 246.249954 146.17952 
L 248.281075 158.580332 
L 250.71842 174.852742 
L 253.561994 195.381149 
L 258.842908 235.625612 
L 262.498928 262.800707 
L 265.3425 282.331776 
L 267.779845 297.487678 
L 269.810968 308.838174 
L 271.842089 318.968066 
L 273.873212 327.877212 
L 275.49811 334.151128 
L 277.123007 339.702082 
L 278.747904 344.571226 
L 280.372802 348.803998 
L 281.9977 352.447284 
L 283.622597 355.547171 
L 285.247495 358.147214 
L 286.872393 360.287112 
L 288.49729 362.001825 
L 290.122188 363.320976 
L 291.340861 364.065337 
L 292.559534 364.608651 
L 293.778207 364.956913 
L 294.99688 365.114246 
L 296.215569 365.082867 
L 297.434242 364.863159 
L 298.652915 364.453685 
L 299.871588 363.851249 
L 301.090261 363.050994 
L 302.715159 361.664849 
L 304.340056 359.896024 
L 305.964954 357.721258 
L 307.589852 355.114237 
L 309.214749 352.046818 
L 310.839647 348.490557 
L 312.464544 344.418598 
L 314.089442 339.807954 
L 316.120564 333.262768 
L 318.151685 325.839502 
L 320.182808 317.557892 
L 322.620155 306.571399 
L 325.463724 292.546148 
L 329.525968 271.113102 
L 334.806885 243.275563 
L 337.650454 229.439007 
L 340.087804 218.64045 
L 342.118925 210.509857 
L 344.150046 203.212598 
L 346.181166 196.75053 
L 348.212292 191.095632 
L 350.243413 186.198289 
L 352.274534 181.995059 
L 353.89943 179.0849 
L 355.524332 176.53666 
L 357.555453 173.804549 
L 359.586574 171.512601 
L 361.617694 169.597978 
L 363.648815 168.004231 
L 365.679941 166.681435 
L 368.117286 165.391094 
L 370.554631 164.365241 
L 373.398205 163.4334 
L 376.647998 162.637565 
L 380.304016 161.995517 
L 384.772481 161.46548 
L 390.053405 161.075134 
L 397.36544 160.780642 
L 407.927278 160.599831 
L 428.64472 160.513844 
L 498.109091 160.501058 
L 498.109091 160.501058 
" style="fill:none;stroke:#31688e;stroke-linecap:square;stroke-width:1.5;"/>
   </g>
   <g id="line2d_17">
    <path clip-path="url(#p6f4e5ede7e)" d="M 92.290909 66.960031 
L 175.566911 67.068936 
L 187.347412 67.307696 
L 194.253232 67.646025 
L 199.534146 68.112836 
L 203.596388 68.677436 
L 207.252415 69.416727 
L 210.095984 70.203258 
L 212.533329 71.072435 
L 214.970674 72.1706 
L 217.001795 73.302173 
L 219.032921 74.673348 
L 221.064042 76.331929 
L 223.095162 78.333897 
L 224.720059 80.226024 
L 226.344956 82.416796 
L 227.969857 84.947676 
L 229.594754 87.86397 
L 231.219651 91.21429 
L 232.844547 95.05006 
L 234.469444 99.424423 
L 236.094345 104.390767 
L 237.719242 110.000486 
L 239.344139 116.300789 
L 241.37526 125.206657 
L 243.40638 135.304343 
L 245.437506 146.606631 
L 247.468627 159.076054 
L 249.905972 175.439401 
L 252.749546 196.084316 
L 258.03046 236.565587 
L 262.092704 266.82486 
L 264.936276 286.227751 
L 267.373621 301.225121 
L 269.404744 312.426013 
L 271.435865 322.403319 
L 273.466988 331.167468 
L 275.091885 337.336834 
L 276.716782 342.797535 
L 278.34168 347.593872 
L 279.966578 351.774025 
L 281.591475 355.387405 
L 283.216373 358.482612 
L 284.841271 361.105896 
L 286.466168 363.300085 
L 288.091066 365.103935 
L 289.715963 366.551741 
L 291.340861 367.673307 
L 292.965758 368.493992 
L 294.590656 369.035042 
L 296.215569 369.314013 
L 297.840466 369.345282 
L 299.465364 369.140737 
L 301.090261 368.710511 
L 302.715159 368.063811 
L 304.340056 367.209798 
L 306.371179 365.866137 
L 308.4023 364.237807 
L 310.839647 361.950567 
L 313.683218 358.90808 
L 317.339236 354.612063 
L 324.245052 346.404963 
L 327.088623 343.362596 
L 329.932193 340.653516 
L 332.36954 338.626273 
L 334.806885 336.874805 
L 337.24423 335.387133 
L 339.68158 334.141585 
L 342.525149 332.95839 
L 345.368718 332.022462 
L 348.618516 331.199447 
L 352.274534 330.518968 
L 356.33678 329.98846 
L 361.617694 329.54256 
L 368.117286 329.228948 
L 377.460446 329.016477 
L 393.709423 328.903529 
L 444.081248 328.875128 
L 498.109091 328.874933 
L 498.109091 328.874933 
" style="fill:none;stroke:#35b779;stroke-linecap:square;stroke-width:1.5;"/>
   </g>
   <g id="patch_3">
    <path d="M 72 384.48 
L 72 51.84 
" style="fill:none;stroke:#000000;stroke-linecap:square;stroke-linejoin:miter;stroke-width:0.8;"/>
   </g>
   <g id="patch_4">
    <path d="M 518.4 384.48 
L 518.4 51.84 
" style="fill:none;stroke:#000000;stroke-linecap:square;stroke-linejoin:miter;stroke-width:0.8;"/>
   </g>
   <g id="patch_5">
    <path d="M 72 384.48 
L 518.4 384.48 
" style="fill:none;stroke:#000000;stroke-linecap:square;stroke-linejoin:miter;stroke-width:0.8;"/>
   </g>
   <g id="patch_6">
    <path d="M 72 51.84 
L 518.4 51.84 
" style="fill:none;stroke:#000000;stroke-linecap:square;stroke-linejoin:miter;stroke-width:0.8;"/>
   </g>
   <g id="legend_1">
    <g id="line2d_18">
     <path d="M 82.8 331.756875 
L 106.8 331.756875 
" style="fill:none;stroke:#440154;stroke-linecap:square;stroke-width:1.5;"/>
    </g>
    <g id="line2d_19"/>
    <g id="text_17">
     <!-- $\nabla_{\lambda^{(i)}}\mathcal{L}$ = 0.001 -->
     <g transform="translate(116.4 335.956875)scale(0.12 -0.12)">
      <defs>
       <path d="M 33.40625 10.296875 
L 53.8125 63.234375 
L 12.984375 63.234375 
z
M 27.984375 0 
L -0.296875 71.921875 
L 67.1875 71.921875 
L 38.921875 0 
z
" id="DejaVuSans-8711"/>
       <path d="M 63.59375 14.296875 
L 65.296875 12.5 
Q 52.296875 -0.703125 37.703125 -0.703125 
Q 33.703125 -0.703125 28.90625 0.40625 
Q 21.796875 1.90625 17.90625 1.90625 
Q 15.703125 1.90625 10.5 0.953125 
Q 5.296875 0 3 0 
L 3.59375 2.40625 
Q 9.09375 2.40625 11.40625 11.703125 
L 18.40625 40.09375 
Q 20.09375 47 23.6875 52.390625 
Q 27.296875 57.796875 31.640625 60.84375 
Q 36 63.90625 40.390625 65.453125 
Q 44.796875 67 48.796875 67 
Q 53.796875 67 56.140625 63.796875 
Q 58.5 60.59375 58.5 56 
Q 58.5 52.296875 56.140625 50 
Q 53.796875 47.703125 50.40625 47.703125 
Q 48.203125 47.703125 46.796875 49.203125 
Q 45.40625 50.703125 45.40625 52.796875 
Q 45.40625 54.40625 46.203125 55.5 
Q 47 56.59375 47.890625 56.9375 
Q 48.796875 57.296875 49.59375 57.890625 
Q 50.40625 58.5 50.40625 59.203125 
Q 50.40625 63 44.59375 63 
Q 39.40625 63 36.09375 59.140625 
Q 32.796875 55.296875 31.09375 48.9375 
Q 29.40625 42.59375 28.046875 35.6875 
Q 26.703125 28.796875 24.203125 21.296875 
Q 21.703125 13.796875 18.09375 9.203125 
L 18.09375 8.796875 
Q 21.296875 11 29.5 11 
Q 34.796875 11 38.4375 8.5 
Q 42.09375 6 46.296875 6 
Q 54.796875 6 63.59375 14.296875 
z
" id="STIXNonUnicode-Italic-57912"/>
       <path d="M 10.59375 45.40625 
L 73.1875 45.40625 
L 73.1875 37.203125 
L 10.59375 37.203125 
z
M 10.59375 25.484375 
L 73.1875 25.484375 
L 73.1875 17.1875 
L 10.59375 17.1875 
z
" id="DejaVuSans-61"/>
      </defs>
      <use transform="translate(0 0.78125)" xlink:href="#DejaVuSans-8711"/>
      <use transform="translate(67.851562 -15.625)scale(0.7)" xlink:href="#DejaVuSans-Oblique-955"/>
      <use transform="translate(114.49074 11.171875)scale(0.49)" xlink:href="#DejaVuSans-40"/>
      <use transform="translate(133.607439 11.171875)scale(0.49)" xlink:href="#DejaVuSans-Oblique-105"/>
      <use transform="translate(147.221208 11.171875)scale(0.49)" xlink:href="#DejaVuSans-41"/>
      <use transform="translate(170.986345 0.78125)" xlink:href="#STIXNonUnicode-Italic-57912"/>
      <use transform="translate(240.286333 0.78125)" xlink:href="#DejaVuSans-32"/>
      <use transform="translate(272.073442 0.78125)" xlink:href="#DejaVuSans-61"/>
      <use transform="translate(355.862505 0.78125)" xlink:href="#DejaVuSans-32"/>
      <use transform="translate(387.649614 0.78125)" xlink:href="#DejaVuSans-48"/>
      <use transform="translate(451.272661 0.78125)" xlink:href="#DejaVuSans-46"/>
      <use transform="translate(483.05977 0.78125)" xlink:href="#DejaVuSans-48"/>
      <use transform="translate(546.682817 0.78125)" xlink:href="#DejaVuSans-48"/>
      <use transform="translate(610.305864 0.78125)" xlink:href="#DejaVuSans-49"/>
     </g>
    </g>
    <g id="line2d_20">
     <path d="M 82.8 349.370625 
L 106.8 349.370625 
" style="fill:none;stroke:#31688e;stroke-linecap:square;stroke-width:1.5;"/>
    </g>
    <g id="line2d_21"/>
    <g id="text_18">
     <!-- $\nabla_{\lambda^{(i)}}\mathcal{L}$ = 0.010 -->
     <g transform="translate(116.4 353.570625)scale(0.12 -0.12)">
      <use transform="translate(0 0.78125)" xlink:href="#DejaVuSans-8711"/>
      <use transform="translate(67.851562 -15.625)scale(0.7)" xlink:href="#DejaVuSans-Oblique-955"/>
      <use transform="translate(114.49074 11.171875)scale(0.49)" xlink:href="#DejaVuSans-40"/>
      <use transform="translate(133.607439 11.171875)scale(0.49)" xlink:href="#DejaVuSans-Oblique-105"/>
      <use transform="translate(147.221208 11.171875)scale(0.49)" xlink:href="#DejaVuSans-41"/>
      <use transform="translate(170.986345 0.78125)" xlink:href="#STIXNonUnicode-Italic-57912"/>
      <use transform="translate(240.286333 0.78125)" xlink:href="#DejaVuSans-32"/>
      <use transform="translate(272.073442 0.78125)" xlink:href="#DejaVuSans-61"/>
      <use transform="translate(355.862505 0.78125)" xlink:href="#DejaVuSans-32"/>
      <use transform="translate(387.649614 0.78125)" xlink:href="#DejaVuSans-48"/>
      <use transform="translate(451.272661 0.78125)" xlink:href="#DejaVuSans-46"/>
      <use transform="translate(483.05977 0.78125)" xlink:href="#DejaVuSans-48"/>
      <use transform="translate(546.682817 0.78125)" xlink:href="#DejaVuSans-49"/>
      <use transform="translate(610.305864 0.78125)" xlink:href="#DejaVuSans-48"/>
     </g>
    </g>
    <g id="line2d_22">
     <path d="M 82.8 366.984375 
L 106.8 366.984375 
" style="fill:none;stroke:#35b779;stroke-linecap:square;stroke-width:1.5;"/>
    </g>
    <g id="line2d_23"/>
    <g id="text_19">
     <!-- $\nabla_{\lambda^{(i)}}\mathcal{L}$ = 0.100 -->
     <g transform="translate(116.4 371.184375)scale(0.12 -0.12)">
      <use transform="translate(0 0.78125)" xlink:href="#DejaVuSans-8711"/>
      <use transform="translate(67.851562 -15.625)scale(0.7)" xlink:href="#DejaVuSans-Oblique-955"/>
      <use transform="translate(114.49074 11.171875)scale(0.49)" xlink:href="#DejaVuSans-40"/>
      <use transform="translate(133.607439 11.171875)scale(0.49)" xlink:href="#DejaVuSans-Oblique-105"/>
      <use transform="translate(147.221208 11.171875)scale(0.49)" xlink:href="#DejaVuSans-41"/>
      <use transform="translate(170.986345 0.78125)" xlink:href="#STIXNonUnicode-Italic-57912"/>
      <use transform="translate(240.286333 0.78125)" xlink:href="#DejaVuSans-32"/>
      <use transform="translate(272.073442 0.78125)" xlink:href="#DejaVuSans-61"/>
      <use transform="translate(355.862505 0.78125)" xlink:href="#DejaVuSans-32"/>
      <use transform="translate(387.649614 0.78125)" xlink:href="#DejaVuSans-48"/>
      <use transform="translate(451.272661 0.78125)" xlink:href="#DejaVuSans-46"/>
      <use transform="translate(483.05977 0.78125)" xlink:href="#DejaVuSans-49"/>
      <use transform="translate(546.682817 0.78125)" xlink:href="#DejaVuSans-48"/>
      <use transform="translate(610.305864 0.78125)" xlink:href="#DejaVuSans-48"/>
     </g>
    </g>
   </g>
  </g>
 </g>
 <defs>
  <clipPath id="p6f4e5ede7e">
   <rect height="332.64" width="446.4" x="72" y="51.84"/>
  </clipPath>
 </defs>
</svg>
